<?xml version="1.0" encoding="utf-8"?>
<!-- Generator: Adobe Illustrator 24.0.3, SVG Export Plug-In . SVG Version: 6.00 Build 0)  -->
<svg version="1.1" id="Capa_1" xmlns="http://www.w3.org/2000/svg" xmlns:xlink="http://www.w3.org/1999/xlink" x="0px" y="0px"
	 width="100px" height="55.366px" viewBox="0 0 100 55.366" style="enable-background:new 0 0 100 55.366;" xml:space="preserve">
<style type="text/css">
	.st0{fill:#FFFFFF;}
	.st1{fill:#00A99D;}
</style>
<g>
	<path class="st0" d="M10.191,53.715C5.929,52.617,2.529,51.234,0,49.567l5.193-11.191c2.399,1.533,5.299,2.782,8.698,3.745
		c3.396,0.968,6.726,1.452,9.991,1.452c6.596,0,9.89-1.635,9.89-4.9c0-1.529-0.895-2.631-2.692-3.298
		c-1.806-0.663-4.571-1.232-8.296-1.696c-4.396-0.667-8.031-1.435-10.894-2.302c-2.867-0.862-5.347-2.395-7.446-4.595
		s-3.147-5.331-3.147-9.394c0-3.4,0.984-6.413,2.948-9.044s4.831-4.681,8.597-6.149C16.604,0.732,21.052,0,26.176,0
		c3.798,0,7.58,0.415,11.346,1.248s6.881,1.98,9.345,3.448L41.67,15.79c-4.733-2.668-9.89-4.001-15.493-4.001
		c-3.326,0-5.823,0.468-7.491,1.403c-1.663,0.931-2.497,2.131-2.497,3.595c0,1.667,0.899,2.834,2.696,3.497
		c1.801,0.667,4.664,1.301,8.593,1.899c4.4,0.736,7.995,1.517,10.793,2.35c2.798,0.834,5.23,2.346,7.295,4.546
		c2.066,2.2,3.099,5.266,3.099,9.194c0,3.335-1,6.295-2.993,8.893c-2.001,2.599-4.92,4.616-8.751,6.047
		c-3.831,1.431-8.377,2.151-13.635,2.151C18.82,55.366,14.457,54.813,10.191,53.715z"/>
	<path class="st0" d="M60.473,51.816c-4.563-2.363-8.125-5.644-10.687-9.845c-2.57-4.197-3.855-8.959-3.855-14.29
		s1.285-10.093,3.855-14.29c2.562-4.201,6.124-7.478,10.687-9.845C65.036,1.183,70.184,0,75.918,0
		c5.661,0,10.605,1.183,14.843,3.546C94.99,5.913,98.072,9.292,100,13.688l-12.094,6.498c-2.798-4.929-6.824-7.397-12.086-7.397
		c-4.067,0-7.434,1.334-10.101,3.997c-2.66,2.668-3.993,6.299-3.993,10.894c0,4.599,1.334,8.231,3.993,10.894
		c2.668,2.664,6.035,3.997,10.101,3.997c5.327,0,9.353-2.464,12.086-7.397L100,41.771c-1.928,4.266-5.01,7.596-9.239,9.996
		c-4.237,2.399-9.182,3.599-14.843,3.599C70.184,55.366,65.036,54.182,60.473,51.816z"/>
	<circle class="st1" cx="48.664" cy="44.064" r="11.301"/>
</g>
</svg>
